<svg id="Layer_2" data-name="Layer 2" xmlns="http://www.w3.org/2000/svg" viewBox="0 0 595.33 186.12">
		<defs>
			<style>
      .cls-1 {
        fill: #005797;
      }
    </style>
		</defs>
		<g id="Laag_1" data-name="Laag 1">
			<g>
				<path class="cls-1" d="M509.59,26.8c6.16,0,9.34-3,9.34-8.81s-3.18-8.81-9.34-8.81-9.34,3-9.34,8.81,3.18,8.81,9.34,8.81Z"></path>
				<path class="cls-1" d="M590.1,97.19V62.7c0-7.42-.58-13.02-3.66-17.45-4.15-5.92-13.01-8.71-24.44-8.71-14.67,0-27.77,4.47-27.77,4.47v14.39h17.64v-9.21c2.36-.95,5.62-1.23,8.54-1.23,6.73,0,9.33,3.97,9.33,13.38v36.28c-3.21,.65-5.71,.83-9.39,.83-7.77,0-11.44-4.77-11.44-11.02,0-9.37,4.6-13.18,16.44-13.18v-7.98c-12.14,0-19.41,.14-25.31,2.41-9.23,3.55-11.53,12.37-11.53,21.27,0,11.16,6.09,19.27,20.49,19.27,10.91,0,13.58,.49,20.4-7.79,0,6.33,2.08,7.79,7.77,7.79h18.17v-9.03h-5.23Z"></path>
				<path class="cls-1" d="M486.66,56.75v-18.78c-2.47-1.22-4.81-1.72-8.35-1.72-6.48,0-13.51,2.53-19.24,8.3-.06-4.84-.62-6.14-5.29-6.14h-21.31v8.28h6.51v50.51h-6.51v9.03h35.06v-9.03h-8.44V58.29c0-3.3,4.65-9.49,11.22-9.49v7.95h16.36Z"></path>
				<path class="cls-1" d="M524.36,97.12h-6.51l.03-53.62c0-2.17-.1-5.1-5.12-5.1h-20.91v8.28h5.94v50.44h-6.51v9.1h33.07v-9.1Z"></path>
				<path class="cls-1" d="M187.06,106.22c20.78,0,30.93-8.92,30.93-26.92,0-14.95-6.95-22.27-24.69-22.81,15.4-4.31,19.61-9.95,19.61-22.12,0-14.81-8.13-21.5-26.87-21.5h-46.77v11.57h6.65V106.22h41.14Zm-18.31-84.92c1.54-.15,2.94-.22,4.35-.22,12.43,0,17.6,4.51,17.6,15.51,0,11.88-4.69,16.66-16.73,17.26v8.68c15.92,0,21.48,6.14,21.48,17.25,0,13.45-5.81,18.15-21.15,18.15-1.74,0-3.61-.07-5.56-.2V21.3Z"></path>
				<path class="cls-1" d="M245.5,106.22c10.91,0,13.58,.49,20.4-7.79,0,6.33,2.08,7.79,7.77,7.79h18.17v-9.03h-5.23V62.7c0-7.42-.58-13.02-3.66-17.45-4.15-5.92-13.01-8.71-24.44-8.71-14.67,0-27.77,4.47-27.77,4.47v14.39h17.64v-9.21c2.36-.95,5.62-1.23,8.54-1.23,6.73,0,9.33,3.97,9.33,13.38v36.28c-3.21,.65-5.71,.83-9.39,.83-7.77,0-11.44-4.77-11.44-11.02,0-9.37,4.6-13.18,16.44-13.18v-7.98c-12.14,0-19.41,.14-25.31,2.41-9.23,3.55-11.53,12.37-11.53,21.27,0,11.16,6.09,19.27,20.49,19.27Z"></path>
				<path class="cls-1" d="M400.86,98.43c0,6.33,2.09,7.79,7.77,7.79h18.17v-9.03h-5.23V62.7c0-7.42-.58-13.02-3.66-17.45-4.15-5.92-13.01-8.71-24.44-8.71-14.67,0-27.77,4.47-27.77,4.47v14.39h17.64v-9.21c2.36-.95,5.62-1.23,8.54-1.23,6.73,0,9.33,3.97,9.33,13.38v36.28c-3.21,.65-5.71,.83-9.39,.83-7.77,0-11.44-4.77-11.44-11.02,0-9.37,4.6-13.18,16.44-13.18v-7.98c-12.15,0-19.41,.14-25.31,2.41-9.23,3.55-11.53,12.37-11.53,21.27,0,11.16,6.09,19.27,20.49,19.27,10.91,0,13.58,.49,20.4-7.79Z"></path>
				<path class="cls-1" d="M352.61,38.4h-15.87v8.77h5.06l-12.01,37.39-13.64-40.16c-1.54-4.6-3.98-6-9.28-6h-16.59v8.78h5.43l21.37,59.04h16.53l21.59-58.26c2.98-6.96,.85-9.56-2.6-9.56Z"></path>
				<path class="cls-1" d="M534.5,27.7h2.63v-10.89h-2.65c-.5,.45-1.07,.78-1.73,.98v2.36l1.74-.69v8.24Z"></path>
				<polygon class="cls-1" points="546.43 27.7 549.5 27.7 556.85 18.9 556.85 16.81 545.1 16.81 545.1 18.9 553.8 18.9 546.43 27.7"></polygon>
				<path class="cls-1" d="M566.14,27.7h2.63v-10.89h-2.65c-.5,.45-1.07,.78-1.73,.98v2.36l1.74-.69v8.24Z"></path>
				<path class="cls-1" d="M582.83,23.78c1.63,0,3.05-.45,4.17-1.28-.23,2.09-1.75,3.34-4.03,3.34-1.41,0-2.65-.47-3.57-1.34l-1.58,1.33c1.4,1.4,3.13,2.08,5.21,2.08,2.23,0,4.15-.87,5.39-2.38,.75-.92,1.16-2.05,1.16-3.28,0-3.25-2.59-5.57-6.59-5.57-3.49,0-5.55,1.49-5.55,3.75,0,1.94,2.04,3.35,5.4,3.35Zm0-4.96c1.69,0,2.89,.45,3.61,1.37-.83,1.01-2.1,1.51-3.84,1.51s-2.66-.48-2.66-1.41,.99-1.46,2.89-1.46Z"></path>
				<polygon class="cls-1" points="231.54 23.03 239.41 23.03 239.41 27.71 242.05 27.71 242.05 16.83 239.41 16.83 239.41 20.8 231.54 20.8 231.54 16.83 228.89 16.83 228.89 27.71 231.54 27.71 231.54 23.03"></polygon>
				<path class="cls-1" d="M253.31,26.23c1.35,1.13,3.31,1.79,5.52,1.79s4.17-.66,5.54-1.79c1.23-1.02,1.88-2.39,1.88-3.99s-.65-2.93-1.88-3.96c-1.37-1.13-3.34-1.8-5.52-1.8s-4.14,.66-5.52,1.8c-1.23,1.02-1.88,2.38-1.88,3.96s.63,2.96,1.87,3.99Zm5.54-7.64c2.86,0,4.68,1.51,4.68,3.66s-1.8,3.67-4.69,3.67-4.67-1.47-4.67-3.67,1.84-3.66,4.68-3.66Z"></path>
				<polygon class="cls-1" points="286.67 25.62 278.29 25.62 278.29 16.81 275.64 16.81 275.64 27.71 286.67 27.71 286.67 25.62"></polygon>
				<polygon class="cls-1" points="306.12 25.62 297.74 25.62 297.74 16.81 295.09 16.81 295.09 27.71 306.12 27.71 306.12 25.62"></polygon>
				<path class="cls-1" d="M317.7,25.36h6.98l1.25,2.35h2.68l-5.78-10.89h-3.27l-5.79,10.89h2.68l1.25-2.35Zm3.48-6.56l2.39,4.47h-4.79l2.39-4.47Z"></path>
				<polygon class="cls-1" points="339.32 19.93 339.36 19.93 346.75 27.71 349.85 27.71 349.85 16.82 347.2 16.82 347.2 24.61 347.14 24.61 339.75 16.82 336.67 16.82 336.67 27.71 339.32 27.71 339.32 19.93"></polygon>
				<path class="cls-1" d="M371.75,26.32c1.29-1.02,1.94-2.36,1.94-3.94,0-3.34-2.54-5.57-6.59-5.57h-7.31v10.89h7.67c1.65,0,3.19-.51,4.29-1.39Zm-9.31-.71v-6.71h4.83c2.14,0,3.64,1.45,3.64,3.43,0,.66-.24,1.32-.67,1.88-.68,.86-1.81,1.4-2.95,1.4h-4.84Z"></path>
				<path class="cls-1" d="M400.35,25.83c-2.03,0-3.88-.54-5.74-1.69l-1.45,1.78c2.09,1.44,4.35,2.04,7.07,2.04,4.14,0,6.36-1.4,6.36-3.76,0-2.14-1.64-2.97-5.06-3.28-1.68-.15-3.08-.07-4.12-.33-.63-.15-.95-.41-.95-.78,0-.71,1.17-1.14,3.45-1.14,1.7,0,3.25,.39,4.78,1.22l1.5-1.75c-1.59-1.05-3.75-1.59-6.41-1.59-3.94,0-6.08,1.35-6.08,3.49s2.09,3.02,6.33,3.21c2.32,.1,3.73,.1,3.73,1.07,0,.89-1.23,1.52-3.43,1.52Z"></path>
				<rect class="cls-1" x="415.88" y="16.82" width="2.65" height="10.89"></rect>
				<polygon class="cls-1" points="438.88 24.61 438.82 24.61 431.43 16.82 428.34 16.82 428.34 27.71 430.99 27.71 430.99 19.93 431.04 19.93 438.42 27.71 441.52 27.71 441.52 16.82 438.88 16.82 438.88 24.61"></polygon>
				<path class="cls-1" d="M453.31,26.61c1.56,.96,3.19,1.4,5.11,1.4,2.85,0,4.89-.87,6.7-2.93l-2.24-1.2c-1.28,1.38-2.74,2.03-4.57,2.03-2.89,0-4.76-1.52-4.76-3.67s1.84-3.64,4.54-3.64c1.96,0,3.54,.77,4.76,1.97l2.41-.86c-1.76-2.18-4.02-3.22-6.95-3.22-2.18,0-4.14,.66-5.51,1.79-1.23,1.02-1.88,2.39-1.88,3.95,0,1.84,.94,3.48,2.39,4.38Z"></path>
				<polygon class="cls-1" points="486.64 25.62 477.05 25.62 477.05 23.22 483.42 23.22 483.42 21.13 477.05 21.13 477.05 18.91 486.22 18.91 486.22 16.81 474.41 16.81 474.41 27.71 486.64 27.71 486.64 25.62"></polygon>
				<path class="cls-1" d="M437.53,146.48c0-.12-.03-.19-.04-.25-.01-.04-.01-.12-.01-.18v-.07c-.22-.76-.63-1.34-1.19-1.67-.64-.37-1.49-.41-2.43-.13-.63,.06-1.27,.5-1.86,.93-.87,.58-1.72,1.22-2.59,1.89-.51,.39-1.02,.77-1.54,1.14-.13,.09-.22,.15-.3,.24-.16,.16-.31,.31-.7,.2h0c.05-.27,.21-.56,.36-.82l.08-.11c.46-.7,.84-1.39,1.21-2.07l.76-1.38,.06-.09c.3-.48,.55-.92,.64-1.36,.3-.71,.08-1.23-.22-1.39-.55-.38-1.16-.36-1.54,.04-.43,.41-.88,.86-1.22,1.36-.05,.07-5.08,6.82-6.8,10.05l-1.16,2.16c-.86,1.6-1.75,3.32-2.41,5.03-.23,.51-.45,1-.52,1.47,0,.47,.23,.9,.64,1.19,.27,.2,.6,.3,.94,.3,.19,0,.39-.03,.58-.1h.03c.32,0,.51-.18,.69-.35,.04-.03,.07-.05,.11-.09,.02-.02,.04-.03,.1-.08,.35-.35,.63-.74,.92-1.14l.32-.44c2.6-3.73,5.63-7.15,9.02-10.17,.88-.88,1.89-1.66,2.94-2.46l.98-.73c.41-.43,1.1-.95,1.32-.83,.01,.02,.35,.53-.17,3.42v.02c-.03,.29-.05,.57-.08,.84-.14,1.44-.27,2.8,.31,3.76,.17,.28,.4,.36,.56,.38,.49,.05,.96-.44,1.02-.5l.04-.06c1.14-2.23,1.25-5.83,1.25-5.99v-1.42s-.1-.55-.1-.55Z"></path>
				<path class="cls-1" d="M569.1,151.43c-.37-.46-.94-.6-1.62-.36l-.5,.29c-.17,.1-.35,.19-.49,.3-1.82,1.09-3.54,2.43-5.19,3.73l-.19,.14c-1.89,1.47-3.84,2.99-5.95,4.15-2.43,1.36-4.2,1.77-4.84,1.12-.54-.54-.29-1.74,.77-3.67l.38-.72c.67-1.31,1.31-2.55,2.15-3.79,1.23-1.96,2.12-3.42,2.83-4.56l.72-1.16q2.17-3.57,6.97-10.05l1.41-1.9c.39-.45,.8-.92,.98-1.3,.39-.76,.28-1.43-.36-2.07-.64-.48-1.52-.44-2.13,.13-.28,.39-.64,.79-.92,1.08-.14,.14-.25,.28-.38,.42-1.85,2.36-2.74,3.45-3.22,4.03l-.26,.31q-.42,.5-1.15,1.55c-.26,.37-.62,.88-1.11,1.58-.47,.67-1.06,1.52-1.82,2.6-.43,.59-.9,1.17-1.35,1.72l-.55,.65c-.24,.29-.38,.47-.76,.31l-.05-.03c-.07-.08-.13-.18-.2-.3-.02-.03-.04-.07-.06-.1-.05-.08-.1-.16-.16-.23-1.61-2.58-4.18-3.69-7.08-3.02l-.58,.25c-.85,.35-1.72,.72-2.57,1.17-1.82,1.08-3.47,2.42-5.24,3.87l-.11,.09c-1.41,1.16-2.88,2.35-4.52,3.45-.27,.16-.63,.53-.93,.82-.18,.2-.32,.43-.41,.69v.03c-6.3,3.45-9.09,4.67-12.06,5.71-1.79,.82-3.56,1.31-5.2,1.71-1.53,.41-2.93,.52-4.29,.31-1.65-.22-2.73-.83-3.13-1.77-.39-.96-.05-2.19,.97-3.54,.13-.13,.25-.13,.35-.13,5.22,.19,10.06-1.35,14.72-4.73,.76-.55,1.43-1.21,1.93-1.93,.6-1.01,.69-2.07,.28-2.98-.43-.97-1.38-1.65-2.62-1.88-3.99-.27-8.33,1.25-13.32,4.67-.33,.25-.67,.5-1.01,.75l-.27,.2c-1.19,.86-2.43,1.74-3.59,2.91l-.11,.11c-3.02,1.72-4.82,2.25-5.36,1.58h0c.09-.21,.23-.43,.39-.65,.17-.25,.35-.51,.46-.76,1.29-1.93,2.44-4.19,3.49-6.87,.38-.81,.59-1.76,.79-2.67l.19-.86c.21-.79,.39-1.92-.37-2.62-.2-.2-.35-.21-.45-.19h-.08c-.6,.2-1,1.52-1.08,1.77-3.05,8.79-8.18,14.92-9.2,16.1l-1.69,1.8c-1,.89-2.1,1.71-3.28,2.45-.33,.25-.71,.45-1.11,.67l-.57,.29c-1.06,.51-1.88,.61-2.43,.29-.51-.3-.81-.95-.89-1.97v-.17c.06-.78,.12-1.67,.39-2.51,.37-2.12,1.27-4.32,2.76-6.74,.3-.57,.51-1.01,.7-1.5,.15-.47-.05-.96-.57-1.3-.36-.18-1.21-.35-1.63,.07l-1.13,1.19c-.87,.91-1.74,1.84-2.58,2.75l-.44,.47c-.91,.98-1.85,1.99-2.81,2.95-.99,1.06-1.99,1.97-2.88,2.77l-.56,.51c-1.58,1.33-2.44,1.79-2.87,1.51-.43-.27-.43-1.18,0-2.87,.66-2.2,1.47-4.39,2.41-6.49,1.96-3.95,2.98-5.76,4.22-7.44l.17-.45c.27-.53-.11-1.02-.45-1.24-.34-.19-1.05-.17-1.37,.25-.48,.48-.87,.9-1.25,1.41-.19,.29-.38,.58-.56,.86-.19,.28-.37,.56-.54,.83-1.4,2.19-2.61,4.08-4.99,5.62-.27,.17-.66,.55-.95,.85-.23,.28-.38,.57-.43,.9l-.06,.04c-6.3,3.45-9.08,4.66-12,5.69-1.89,.86-3.77,1.36-5.21,1.71-1.52,.41-2.92,.52-4.27,.31-1.66-.21-2.75-.83-3.15-1.77-.39-.96-.04-2.19,.99-3.54,.13-.13,.25-.13,.34-.13,5.23,.19,10.06-1.35,14.72-4.72,.74-.52,1.39-1.16,1.95-1.93,.6-1,.69-2.06,.26-2.99-.43-.97-1.37-1.65-2.62-1.88-.31-.02-.61-.04-.91-.04-3.7,0-7.76,1.54-12.42,4.71-.26,.21-.55,.41-.84,.62l-.37,.27c-.14,.11-3.34,2.64-4.64,6.45l-.11,.51c-.73,2.99,.53,5.63,3.37,7.08,1.16,.46,2.17,.7,3.26,.76,3.08,.21,6-.59,8.75-1.44l.55-.22c.3-.12,.61-.24,.93-.37l.08-.03c3.52-1.42,7.9-3.18,12.73-6.57h.02s0,0,0,0c-.05,.15-.09,.31-.13,.46-.04,.15-.08,.3-.13,.46l-.11,.4c-.1,.35-.2,.7-.29,1.07-.02,.09-.04,.2-.06,.32-.01,.08-.03,.16-.04,.25v.07c-.16,.91-.32,1.85,0,2.87,.26,.82,.77,1.45,1.5,1.82,.78,.37,1.76,.36,2.84-.04,.83-.41,1.5-.78,2.07-1.24,1.15-.86,2.2-1.77,3.27-2.7l.69-.62c.35-.35,.72-.65,1.29-1.1l.42-.34v.03c-.19,1.13-.27,2.06-.27,3.13,0,1.44,.3,2.57,.89,3.34,.87,1.1,2,1.67,3.28,1.67,.28,0,.56-.03,.85-.08,1.17-.14,2.03-.38,2.71-.77,1-.54,2.45-1.37,3.6-2.3,.4-.26,.73-.54,1.12-.87,.15-.13,.31-.25,.53-.42l2.64-2.83c.56-.51,1.01-.68,1.53-.89l.18-.08s.07,0,.16-.01l.08-.02c.22-.06,.46-.11,.71-.17,.25-.06,.52-.12,.78-.19l.11-.02c1.31-.3,2.78-.64,4.2-1.1l-.06,.19c-.99,3.2,.22,6.02,3.26,7.57,1.18,.47,2.19,.7,3.26,.76,3.07,.21,5.89-.56,8.77-1.44l.49-.2c.33-.13,.67-.27,1.02-.41l.09-.04c3.47-1.4,7.78-3.15,12.51-6.43l.03-.02-.03,.09c-.39,.98-.6,2.08-.6,3.18-.04,1.56,.55,2.91,1.65,3.79,1.1,.86,2.55,1.11,4.03,.71,1.26-.23,2.53-.72,3.57-1.38,1.22-.73,2.45-1.6,3.44-2.3l1.36-.95,1.53-1.21v.02c.39,.62,.25,1.12,.12,1.56l-.12,.44c-.09,.93-.12,2.01,.28,2.99,.53,1.49,1.66,2.36,3.2,2.46,1.12,0,1.99-.15,2.84-.49,1.75-.65,3.41-1.7,4.94-2.74,1.63-1.11,3.17-2.32,4.73-3.57,1.79-1.39,3.41-2.65,5.2-3.9,.29-.17,.68-.55,.95-.84,.32-.33,.73-1.02,.28-1.6l-.06-.09Zm-61.52,.89c1.76-1.9,4.79-3.81,8.11-5.12,1.46-.62,3.47-1.47,5.67-1.33h.14s-.07,.12-.07,.12c-1.34,2.09-3.29,3.12-5.01,4.02l-.27,.15c-2.64,1.53-5.24,2.34-7.5,2.34-.34,0-.66-.02-1.02-.07h-.14s.09-.11,.09-.11Zm-63.92,0c1.76-1.9,4.79-3.81,8.11-5.12,1.47-.62,3.47-1.47,5.67-1.33h.14s-.07,.12-.07,.12c-1.34,2.09-3.29,3.12-5.01,4.02l-.27,.15c-2.65,1.53-5.24,2.34-7.5,2.34-.33,0-.65-.02-1.02-.07h-.14s.09-.11,.09-.11Zm105.88-2.79l-.03,.03c-2.74,2.98-5.57,5.54-8.4,7.59-.92,.65-1.85,1.14-2.76,1.61l-.72,.36c-.89,.46-1.65,.57-2.49,.41h-.02s-.01-.03-.01-.03c-.45-.61-.33-1.19-.2-1.79,.02-.09,.04-.18,.05-.28,.01-.07,.03-.15,.04-.2,.26-.84,.56-1.56,.76-2.01,1.55-3.36,4.12-6.14,7.64-8.25,.78-.44,1.62-.77,2.44-.94,1.08-.28,2.16-.09,2.9,.5,.68,.54,1.01,1.43,.94,2.5,0,.23,0,.33-.13,.49Z"></path>
				<path class="cls-1" d="M405.37,146.16c.11-.05,.22-.11,.37-.18,.48-.22,.85-.39,1.15-.61,3.19-1.38,6.23-3.04,8.8-4.81,.25-.22,.52-.43,.79-.65,.19-.15,.38-.31,.56-.46,.94-.74,1.93-1.53,2.8-2.4,.82-.76,1.43-1.63,2.09-2.69,.76-1.3,.99-2.6,.65-3.74-.3-1.09-1.09-1.99-2.3-2.63-.82-.38-1.82-.68-2.95-.87-3.73-.82-7.35-.39-11.05,.17-1.34,.27-2.66,.57-4.15,.93-.45,.1-.91,.2-1.37,.31-.94,.21-1.9,.43-2.87,.63h0s-.05-.09-.09-.18c-.01-.02-.03-.05-.05-.09-.05-.1-.11-.22-.22-.35-.4-.52-.83-.74-1.17-.71-.36,.02-.67,.3-.92,.79-.3,.41-.46,.69-.64,1.09-.23,.68-.69,1.16-1.45,1.52-.28,.1-.52,.23-.76,.36l-.32,.17c-.2,.11-.4,.22-.62,.31-2.7,1.34-5.06,2.93-7.22,4.86-.79,.63-1.45,1.33-2.06,2.17-.47,.42-.59,1.11-.32,1.83,.18,.49,.55,.82,1,.93,.43,.17,.98-.17,1.29-.8,.06-.11,.1-.22,.14-.34l.05-.15c.11-.38,.24-.79,.55-1.14,1.99-1.58,4.18-3.14,6.79-3.93h.03c.06,.02,.18,.07,.37,.1h0s-.09,.32-.09,.32c-.19,.65-.35,1.2-.72,1.77-2.48,6.48-5.58,15.06-7.61,24.09-.07,.19-.17,.48-.37,.68h-.02c-1.64,.2-3.13,.03-4.53-.52-.95-.48-1.78-.03-2.23,.54l-.04,.08c-.35,1.02-.21,1.91,.41,2.65l.06,.05c.16,.11,.3,.21,.44,.34,.21,.19,.41,.37,.6,.4,.89,.41,1.77,.66,2.59,.88l.46,.14c1.01,.12,2.14,.26,3.01,1l.15,.13,.16-.11c1.21-.79,2.41-.77,3.47-.75h.2c2.36-.1,5.15-.25,8-.67,4.48-.67,7.98-1.66,11.03-3.15,.13-.09,.28-.18,.44-.28l.33-.21c1.51-.92,3.08-1.87,4.21-3.2,.96-.79,1.73-1.71,2.22-2.67,1.43-2.52,1.1-5.1-.86-6.91-.68-.62-1.48-1.29-2.34-1.58-.84-.38-1.64-.65-2.31-.88-.2-.08-.4-.15-.6-.22-.39-.14-.77-.28-1.21-.46-.41-.07-.78-.18-1.24-.33l-.07-.02c-.29-.09-.63-.2-1.04-.3h.02c.2-.11,.38-.2,.56-.29Zm-.24,4.22h0c1.82,.33,3.19,.84,4.47,1.66,1.16,.63,1.75,1.26,1.8,1.92,.06,.66-.41,1.38-1.49,2.28-.85,.79-1.88,1.39-2.78,1.91-.2,.11-.4,.22-.59,.33-.11,.07-.23,.13-.34,.19-1.98,1.03-4.24,1.83-6.72,2.38-2.7,.71-5.79,1.17-9.73,1.43l-.52,.04c-.21,.02-.43,.03-.65,.03-.38,0-.7-.04-.96-.14h-.02c.46-2.29,3.29-11.3,4.5-13.8h0s.04,.02,.04,.02c.05,.02,.12,.05,.2,.07,.11,.03,.19,.06,.24,.17,.63,.82,1.3,.92,2.37,.82,3.52-.28,6.94-.06,10.17,.66Zm-4.32-6.89c-1.44,.59-2.9,1.11-4.44,1.66l-1.61,.58c-.7,.25-1.41,.51-2.14,.79h-.01s0-.01,0-.01c.63-1.85,1.24-3.73,1.84-5.56l.21-.64c.62-1.97,1.46-4.54,2.35-7.04h0c1.24-.63,2.5-1,3.71-1.37l.16-.05c.44-.13,.89-.26,1.31-.4,4.14-.94,7.71-1.35,10.92-1.26h.06c1.51,0,3.07,0,4.48,.6l.06,.02c.27,.04,.51,.17,.77,.31l.15,.08c.12,.08,.26,.16,.4,.24h0s-.07,.46-.07,.46c-.07,.4-.12,.72-.35,.9-.13,.15-.26,.29-.39,.43-.14,.15-.27,.3-.41,.46-.51,.59-.94,1.05-1.41,1.49-1.96,1.7-4.38,3.26-6.98,4.51-2.75,1.31-5.57,2.55-8.62,3.8Z"></path>
				<path class="cls-1" d="M204.93,146.01c.63,.15,1.14-.03,1.41-.48,.46-.62,.47-1.5,.02-2.11-.38-.52-.93-.7-1.64-.82-.81-.15-1.64-.21-2.8-.21h-.03c-2.29,.2-4.6,.36-6.84,.51l-.79,.05c-1.67,.11-3.33,.23-5.04,.36l-.64,.06c-.74,.05-1.51,.11-2.36-.05h0s0-.01,0-.01c.05-.39,.11-.56,.2-.84,2.43-4.66,5.11-9.6,8.23-14.15,.13-.33,.68-.67,.96-.71,.4-.08,.82-.07,1.21-.07h.62c7.55-.21,15.37,.15,22.13,.51,.63-.01,1.35,0,2.01,.35,.69,.24,1.32,.16,2.04,.06h.1c.09-.02,.17-.04,.26-.05,.08-.01,.16-.03,.25-.04l.07-.02c.65-.27,1.07-.82,1.07-1.42-.05-.6-.45-1.03-1.05-1.13-.14-.03-.29-.06-.45-.08-.13-.02-.25-.04-.39-.07-.65-.12-1.39-.25-1.95-.29-2.88-.31-5.49-.51-7.96-.61-10.08-.75-18.9-.54-26.98,.61-3.6,.53-7.4,1.49-11.01,2.81-.15,.08-.33,.17-.55,.27l-.26,.13c-.24,.12-.49,.25-.7,.4-.57,.41-.65,1.19-.39,1.7,.16,.34,.41,.58,.75,.71,.34,.1,.72,.04,1.08-.16,.49-.12,.9-.28,1.29-.44l.28-.11c.44-.17,.9-.35,1.4-.45,3.42-1.03,7.02-1.73,11.07-2.14,.31-.1,.57,.06,.73,.49v.02s0,0,0,0c-3.73,5.12-6.86,11-9.16,15.53l-.02,.03c-.42,.18-.67,.21-.92,.24l-.18,.02c-3.71,.6-8,1.33-12.02,2.53l-.4,.11c-.53,.16-1.13,.34-1.59,.63l-.05,.02c-.45,.09-.7,.52-.7,1.23,.05,.48,.39,1.01,.94,1.06l.23,.02c.46,.06,.95,.12,1.38,.04,.58-.09,1.14-.18,1.68-.28l.83-.14c.92-.18,1.83-.34,2.78-.47,.41-.05,.82-.12,1.22-.19l.57-.1c1.33-.25,2.65-.47,4.14-.47h.01c-.09,.4-.23,.76-.33,1.03-.11,.31-.22,.59-.27,.85l-.11,.29c-.28,.75-.55,1.46-.84,2.17l-.12,.32c-1.48,3.87-3.01,7.87-3.94,11.81-.38,1.43-.53,2.74-.72,4.26v.12c-.01,.44,.17,1.13,.5,1.86,.33,.53,.8,.79,1.42,.79,.14,0,.29-.01,.45-.04,.83-.07,1.32-.73,1.75-1.45,.4-.82,.33-1.38-.25-1.91-.56-.44-.54-.94-.43-1.44,.05-.35,.18-.7,.3-1.01,.15-.34,.24-.64,.3-.92,1.7-5.5,3.99-10.71,6.6-16.46,.07-.12,.13-.23,.22-.36,.12-.18,.24-.36,.34-.62,.36-.02,.72-.08,1.08-.14l.55-.1c.35-.06,.68-.12,1.01-.14,4.95-.62,9.92-1.12,14.58-1.59l.25-.02c1.13-.11,2.31-.23,3.55,.3Z"></path>
				<path class="cls-1" d="M301.03,139c.06,.01,.13,.02,.2,.02,.3,0,.64-.13,1-.39l3.03-2.86c.21-.25,.4-.63,.51-.85l.03-.06v-.07c-.03-.53-.2-.94-.49-1.19-.25-.22-.53-.32-.76-.27-.39,0-1,.15-1.42,.46-.77,.79-1.09,1.21-1.38,1.58l-.19,.24c-.27,.35-.59,.74-1.3,1.48l-.06,.06-.02,.17c-.17,.36-.13,.73,.14,1.18,.2,.28,.45,.45,.71,.5Z"></path>
				<path class="cls-1" d="M355.4,144.35c-.55-.3-1.28-.21-1.85,.23-.67,.51-1.24,1.08-1.68,1.53-1.18,1.07-2.36,2.16-3.53,3.23l-.36,.33c-1.74,1.62-3.55,3.29-5.28,4.83-1.62,1.26-3.28,2.35-4.77,3.33-.45,.34-.99,.57-1.51,.78-.26,.1-.5,.21-.74,.31l-.06,.03c-.4,.13-.75,.11-1-.06-.18-.13-.39-.39-.42-.89,.03-.48,.14-.97,.27-1.48l.09-.36c.1-.33,.19-.67,.27-1.02,.69-2.36,1.8-4.85,3.39-7.6,.12-.18,.23-.35,.33-.52,.36-.6,.77-1.28,1.66-1.67,.59-.26,.46-.77,.31-1.31l-.02-.08c-.03-.09-.05-.17-.06-.26l-.04-.1c-.34-.57-.72-.71-.97-.73-.39-.05-1.07,.17-2.07,1.43-1.93,2.27-4.67,4.59-7.31,6.76-.13,.1-.6,.47-.94,.84-.21,.23-.35,.5-.42,.76h0c-6.96,5.69-11.72,8.52-13.03,7.78-.21-.13-.48-.4-.37-1.27,.11-.65,.33-1.45,.67-2.52,.81-2.63,1.98-5.31,3.58-8.19,.28-.53,.71-1.01,1.32-1.49l1.51-1.25c1.93-1.56,3.81-3.09,5.61-4.72,3.24-2.85,7.03-6.26,10.48-9.93,.8-.77,1.44-1.6,2.02-2.38,.2-.28,.41-.56,.65-.85,.38-.62,.69-1.13,.87-1.75,.15-.68,0-1.3-.41-1.74-.47-.46-1.21-.65-1.95-.48-.74,.19-1.24,.35-1.55,.59-1.12,.55-2.05,1.1-3,1.78-2.51,1.61-4.66,3.66-5.95,4.88-2.42,2.37-4.57,5.29-6.66,8.13l-.31,.42c-3.18,4.34-6.46,8.82-10.71,11.39-.27,.17-.66,.55-.94,.83-.19,.19-.34,.46-.4,.71v.03c-4.76,2.87-7.81,4.81-9.82,6.09-2.26,1.44-3.29,2.1-4.11,2.4-1.46,.57-3.52,1.23-4.48,.44-.49-.39-.65-1.11-.47-2.15,.1-.74,.34-1.59,.6-2.2,.64-1.43,1.34-2.69,2.21-3.95l.4-.56c.32-.45,.64-.9,.94-1.35l.19-.27c.99-1.4,2.01-2.84,3.04-4.15,.36-.32,.75-.79,1.12-1.35,.22-.31,.3-.69,.23-1.03-.07-.35-.26-.64-.54-.83l-.03-.02c-.5-.54-1.09-.63-1.81-.23l-1.15,.94c-2.55,3.03-5.09,5.33-8.48,7.71-.26,.16-.67,.55-.95,.84-.16,.18-.29,.41-.39,.7h-.02c-2.77,1.56-4.93,2.89-6.67,3.95-2.1,1.29-3.62,2.22-5.1,2.88-.53,.35-1.54,.68-1.81,.38-.15-.16-.04-.5,.38-1.05,1.59-2.74,4.17-6.95,5.84-9.33l.13-.18c.7-.98,1.39-1.97,2.08-2.98,.83-1.12,1.38-2.28,1.91-3.46,.34-.62,.51-1.3,.51-2.09,0-1.24-.94-2.23-2.27-2.36-.53,0-1.08,0-1.61,.23-.32,.13-.65,.26-.98,.38l-.19,.07c-.67,.26-1.37,.54-2.02,.92-2.26,1.2-4.29,2.7-6.7,4.55-3.26,2.53-6.44,5.36-10,8.9l-.03,.03c-.08,.04-.15,.1-.21,.15l-.06,.05s-.08,.07-.11,.1c-.04,.03-.06,.05-.14,.11-.01,.01-.05,.05-.08,.1l-.02,.02c-.11,.11-.18,.18-.28,.18-.14-.01-.27-.15-.39-.3h0c.21-.35,.39-.68,.58-1l.17-.3c.27-.47,.54-.95,.9-1.49,.46-.86,1-1.74,1.57-2.66l.54-.88c.36-.59,.73-1.2,1.09-1.84,.43-1.01,.64-1.84,.68-2.58,.11-.63-.02-1.16-.37-1.58-.41-.45-1.05-.67-1.8-.63-.88,0-1.68,.36-2.48,.77-2.79,1.41-5.38,3.12-7.68,5.11-1.52,1.28-3.07,2.62-4.59,3.92l-1.15,.99c-1.2,1.05-2.37,2.06-3.57,3.08-.18,.21-.4,.41-.62,.61l-.34,.32c-.29,.27-.62,.58-.98,.97l-.03,.03v-.02c.04-.28,.04-.5,.04-.68,0-.17,0-.28,.02-.33,2.18-3.98,4.8-7.88,7.78-11.57,.38-.38,.83-.74,1.52-.74,.5,0,.81-.5,.86-.97,.06-.35,.06-.61,.06-.94,0-.62-.26-1.16-.68-1.43-.36-.25-.86-.27-1.41-.06-.84,.4-1.62,1.06-1.94,1.36-2.49,2.99-5.24,6.12-8.97,8.69-.3,.18-.74,.61-.95,.84-.2,.22-.33,.47-.39,.72l-3.62,2.46c-.4,.26-.81,.53-1.26,.84l-.16,.11c-.59,.4-1.2,.81-1.87,1.21-.87,.71-1.88,1.33-3.12,1.95l-.3,.11c-.65,.2-1.32,.4-2.16,.07l-.03-.09c-.04-.12-.17-.47-.12-.8,.1-.73,.3-1.75,.59-2.45,1.42-3.28,3.2-6.05,5.47-8.49,.2-.29,.46-.55,.65-.74,.09-.07,.16-.15,.23-.23l.11-.12c.51-.8,.48-1.63-.07-2.16-.54-.57-1.43-.87-2.2-.28-.18,.16-.35,.34-.53,.53l-.3,.3c-.28,.31-.66,.72-1.09,1.09-.31,.31-.64,.7-.96,1.07l-.2,.23c-.32,.37-.65,.75-.97,1.05-.8,.7-1.49,1.32-2.11,1.9l-.1,.09c-1.52,1.37-3.09,2.79-4.73,4.06-1.67,1.4-3.51,2.65-5.32,3.87l-.27,.2c-.79,.51-1.71,.89-2.53,1.23l-.23,.1c-.29,.12-.59,.25-.88,.38-.58,.28-1.26,.31-1.82,.32-.53,.05-.94-.07-1.19-.36-.24-.25-.3-.68-.19-1.26,.25-.8,.59-1.62,.94-2.23,2.45-3.79,5.57-6.29,9.8-7.87,.85-.33,1.82-.6,3.18-.44l.12,.2c.24,.38,.48,.76,.75,.94l.05,.03c.45,.57,1.26,.4,1.5,.33l.09-.04c.54-.41,.79-1.04,.63-1.6-.06-.35-.18-.52-.4-.84-.9-1.33-2.43-2-4.29-1.87l-.24,.02c-.92,.06-2.05,.12-2.8,.46-1.41,.48-2.59,.98-3.63,1.55l-.05,.04h-.07s-.06,.04-.06,.04c-1.33,.77-3.18,2.12-4.73,3.45-.07,.07-.14,.14-.22,.21-.09,.08-.18,.17-.27,.26-.06,.06-.12,.11-.18,.17-.1,.09-.21,.19-.3,.29-.31,.33-.48,.74-.49,1.14l-.99,1.36c-.35,.44-.61,1.02-.85,1.54l-.03,.07c-.09,.2-.19,.41-.28,.6-.48,1.02-.48,2.06-.44,3.24,.16,1.93,1.44,3.28,3.43,3.63,1.14,.14,2.33,.03,3.62-.34,1.81-.65,3.38-1.44,4.82-2.42l2.1-1.54c1.13-.83,2.29-1.69,3.33-2.55l1.27-.64h0c0,.4-.02,.78-.04,1.19-.02,.69-.04,1.34,.04,2,.1,1.18,.64,2.2,1.52,2.87,.86,.67,1.93,.94,3.1,.75,.89-.2,1.93-.47,2.89-.99,1.61-.85,3.05-1.7,4.4-2.59,.24-.17,.51-.38,.77-.59,.18-.14,.36-.27,.54-.41,.29-.23,.59-.46,.9-.69,.83-.64,1.7-1.28,2.57-1.93h.01s0,0,0,0c-.07,.14-.14,.29-.25,.45-.07,.13-.13,.27-.2,.39l-.2,.4c-.26,.64-.45,1.32-.63,1.98l-.02,.07c-.05,.17-.1,.35-.15,.52-.06,.2-.11,.4-.17,.59-.17,.54-.1,1.11,0,1.74,.43,1.12,1.2,1.58,2.31,1.37,.73-.16,1.43-.51,1.89-.93l.85-.72c.95-.8,1.79-1.52,2.56-2.24l1.42-1.29c2.45-2.23,4.85-4.4,7.26-6.41,1.63-1.35,3.29-2.53,4.95-3.7l.54-.39c.36-.26,.72-.51,1.08-.79,.07-.03,.12-.06,.19-.1,.28-.16,.56-.28,.89,.1h0s-.07,.1-.07,.1c-.15,.23-.3,.46-.45,.68-.58,.89-1.18,1.8-1.67,2.82-1.27,1.99-2.7,4.33-3.59,7.01-.23,1.03-.31,1.81-.27,2.71,0,.57,.24,1.08,.67,1.42,.45,.34,1.06,.45,1.65,.3,.47-.06,.96-.33,1.49-.64,.71-.54,1.52-1.24,2.24-1.86,.4-.38,.8-.76,1.2-1.16,1.37-1.35,2.79-2.75,4.35-4.04,2.98-2.63,5.64-4.9,8.34-7.13,1.34-1.09,2.87-2.01,4.36-2.91l1.14-.7c.26-.18,.48-.34,.89,.2l-.2,.32c-.11,.17-.21,.34-.33,.52l-.26,.41c-.34,.54-.7,1.11-1.08,1.6l-.47,.64c-2.4,3.18-5.81,8.37-7.69,12.16-.35,.73-.55,1.74-.55,2.7,.06,1.55,1.11,2.62,2.76,2.79,.5,0,1.29-.1,1.88-.33,1.13-.28,2.2-.55,3.24-1.16,1.66-.89,4.46-2.81,6.92-4.51,1.54-1.06,3-2.07,4.05-2.74l.03-.02v.03c-.14,.34-.24,.68-.35,1.02l-.02,.08c-.28,.98-.39,2.09-.33,3.4,.16,3.01,2.05,4.88,5.12,5,.2-.04,.44-.07,.7-.09,.76-.09,1.54-.19,2.27-.54,1.61-.54,3.49-1.23,5.25-2.22,4.07-2.25,9.83-6.12,12.98-9.16l.02-.02v.03c-.38,1.09-.76,2.39-1.2,4.12-.15,1.22-.27,2.51,0,3.81,.52,1.86,2.13,2.72,4.12,2.19,2.44-.77,6.63-3.74,10.68-6.61,1.43-1.02,2.91-2.07,4.32-3.01,.07-.06,.17-.13,.28-.22l.05-.04v.02c-.22,.58-.37,1.18-.52,1.78-.14,.53-.29,1.06-.45,1.57-.27,1-.11,2.05,.43,2.91,.55,1.39,1.65,1.98,3.41,1.84,.5-.06,1.18-.14,1.77-.43l.73-.34c.93-.45,1.89-.91,2.73-1.48,2.05-1.4,4.04-3.03,5.7-4.44,.76-.62,1.47-1.23,2.31-1.99l.07-.06c.37-.32,.75-.64,1.14-.96l.07-.09s.09-.16,.28-.16c.06,0,.16,.01,.33,.13-.1,.13-.13,.28-.17,.43l-.02,.07c-.02,.07-.04,.14-.05,.2-.01,.06-.03,.12-.02,.13l-2.99,5.69s-2.55,4.5-4.29,6.96c-3.12,4.94-6.75,9.12-11.08,12.77-2.02,1.64-3.75,2.81-5.44,3.68-.78,.36-1.77,.73-3.05,1.15l-.1,.02c-.08,.01-.17,.03-.23,.02-2.03-.36-2.44,.26-2.51,.41-.27,.77-.26,1.39,.02,1.84,.32,.52,.89,.6,.91,.6,.46,.13,.92,.2,1.37,.2,.55,0,1.1-.1,1.62-.29,1.13-.29,1.98-.56,2.98-1.06,2.1-1.01,4.15-2.35,6.08-3.94,2.91-2.15,5.54-4.73,8.3-8.13,2.64-3.3,4.99-6.81,6.98-10.44l3.85-7.46c.05-.11,.11-.21,.17-.33l3.14-6.92c.04-.16,.11-.37,.19-.62,.16-.43,.33-.91,.29-1.32,.02-.56-.21-1-.67-1.24Zm-30.93-3.57h0c1.93-3.93,10.75-12.65,14.51-14.35l.09-.04-.19,.6c-4.37,5.02-9.4,9.61-13.81,13.54-.06,.07-.11,.1-.26,.16l-.06,.03s-.04,.02-.07,.03c-.05,.02-.11,.05-.16,.08l-.12,.06,.06-.12Z"></path>
				<path class="cls-1" d="M65.82,108.69c29.46-19.03,47.9-51.12,49.51-86.15l.45-9.89-2.88-1.3C95.59,3.68,76.84-.19,57.9,.01,38.92-.25,20.12,3.63,2.79,11.37l-2.79,1.33,.45,9.87c1.61,35.02,20.06,67.11,49.52,86.12l7.93,5.24,7.93-5.24ZM5.11,22.35l-.31-6.78C21.48,8.09,39.61,4.37,57.9,4.67c18.28-.25,36.39,3.47,53.09,10.91l-.31,6.74c-1.55,33.54-19.22,64.27-47.43,82.48l-5.36,3.54-5.36-3.54C24.33,86.6,6.66,55.89,5.11,22.35Z"></path>
				<polygon class="cls-1" points="65.65 45.28 57.9 10.22 50.13 45.28 57.9 83.19 65.65 45.28"></polygon>
				<path class="cls-1" d="M58.17,95.14c-1.07-.06-2.1-.46-2.94-1.13l-.93,1.39c1.08,.87,2.42,1.36,3.81,1.38,1.87,.02,3.35-.91,3.36-2.8v-.04c.01-1.62-1.46-2.23-2.77-2.65-1.06-.35-2.02-.63-2.02-1.3v-.03c0-.49,.47-.88,1.27-.88,.91,.07,1.78,.37,2.53,.87l.83-1.46c-.98-.65-2.12-1.02-3.3-1.05-.08-.01-.16-.02-.24-.02-1.58-.06-2.92,1.17-2.98,2.75v.03c-.01,1.7,1.46,2.26,2.79,2.65,1.05,.33,2,.58,2,1.28v.04c0,.6-.52,.97-1.41,.96Z"></path>
				<path class="cls-1" d="M73.5,56.93c-1.41,2.15-3.25,3.99-5.41,5.39l16.22,11.71c.24,.17,.58,.12,.75-.12,.13-.19,.14-.44,0-.63l-11.57-16.35Z"></path>
				<path class="cls-1" d="M30.56,19.64c-.13,.19-.13,.44,0,.63l11.71,16.23c1.41-2.15,3.25-3.99,5.4-5.41l-16.36-11.58c-.24-.17-.58-.11-.75,.13Z"></path>
				<path class="cls-1" d="M42.27,56.9l-11.71,16.23c-.17,.24-.12,.58,.12,.75,.19,.13,.44,.14,.63,0l16.36-11.58c-2.15-1.41-3.99-3.25-5.39-5.41Z"></path>
				<path class="cls-1" d="M39.62,42.87l-19.75,3.19c-.29,.05-.49,.32-.45,.62,.04,.23,.21,.41,.44,.45l19.74,3.38c-.52-2.52-.52-5.12,0-7.63Z"></path>
				<path class="cls-1" d="M76.17,50.51l19.74-3.38c.29-.05,.49-.33,.44-.62-.04-.23-.22-.4-.45-.44l-19.74-3.2c.53,2.52,.53,5.12,0,7.63Z"></path>
				<path class="cls-1" d="M73.5,36.48l11.58-16.36c.17-.24,.11-.58-.13-.75-.19-.13-.44-.13-.63,0l-16.23,11.71c2.15,1.41,3.99,3.25,5.41,5.4Z"></path>
			</g>
		</g>
	</svg>